<svg xmlns="http://www.w3.org/2000/svg" viewBox="0 0 352.1 529.1"><defs><style>.cls-1{fill:#f9f9f9;}</style></defs><title>04</title><g id="Layer_2" data-name="Layer 2"><g id="Layer_1-2" data-name="Layer 1"><polygon class="cls-1" points="3.5 525.6 3.5 181.24 70.22 325.14 116.01 17.72 175.15 250.03 229.58 126.99 287.47 395.42 348.6 114.87 348.6 525.6 3.5 525.6"/><path d="M116.91,35.44l52.35,205.64,5,19.62,8.19-18.52,46-103.94,52.22,242.13,6.81,31.57,6.87-31.55,50.77-233V522.1H7v-325L62.13,316,72,337.22,75.4,314.1,116.91,35.44M115.11,0,68.48,313.07,0,165.37V529.1H352.1V82.37L287.49,378.9,230.73,115.73,176,239.36,115.11,0Z"/></g></g></svg>