<svg xmlns="http://www.w3.org/2000/svg" viewBox="0 0 427.98 427.98"><title>barcode</title><g id="Layer_2" data-name="Layer 2"><g id="Layer_1-2" data-name="Layer 1"><path d="M0,6.11V0H428V6.11Zm0,6.11V9.17H428v3.06ZM0,24.46V21.4H428v3.06Z"/><path d="M0,42.8V33.63H428V42.8Zm0,6.11V45.86H428v3.06ZM0,64.2V58.08H428V64.2Z"/><path d="M0,70.31V67.25H428v3.06ZM0,82.54V79.48H428v3.06Zm0,9.17V85.6H428v6.11Z"/><path d="M0,107v-6.11H428V107Zm0,12.23v-3.06H428v3.06Zm0,12.23v-9.17H428v9.17Z"/><path d="M0,137.57v-3.06H428v3.06Zm0,15.29v-6.11H428v6.11ZM0,159v-3.12H428V159Z"/><path d="M0,171.19v-3.06H428v3.06Zm0,6.11v-3.06H428v3.06Zm0,15.29v-6.11H428v6.11Z"/><path d="M0,204.82v-3.06H428v3.06ZM0,214v-6.11H428V214Zm0,12.23v-3.06H428v3.06Z"/><path d="M0,238.45v-3.06H428v3.06Zm0,12.23v-9.17H428v9.17Zm0,9.17v-6.11H428v6.11Z"/><path d="M0,278.19V269H428v9.17Zm0,9.17v-6.11H428v6.11Zm0,6.11v-3.06H428v3.06Z"/><path d="M0,305.7v-3.06H428v3.06ZM0,321v-6.11H428V321Zm0,12.23V324H428v9.17Z"/><path d="M0,342.39v-6.11H428v6.11Zm0,12.23v-3.06H428v3.06Zm0,12.23v-3.06H428v3.06Z"/><path d="M0,379.07V369.9H428v9.17ZM0,391.3v-9.17H428v9.17Zm0,9.17v-6.11H428v6.11Z"/><path d="M0,409.64v-6.11H428v6.11Zm0,12.23V412.7H428v9.17ZM0,428v-3.06H428V428Z"/></g></g></svg>